<?xml version="1.0" encoding="UTF-8"?>
<svg xmlns="http://www.w3.org/2000/svg" xmlns:xlink="http://www.w3.org/1999/xlink" width="212px" height="150px" viewBox="0 0 212 150" version="1.1">
<g id="surface1">
<path style=" stroke:none;fill-rule:nonzero;fill:rgb(0%,0%,0%);fill-opacity:1;" d="M 62.046875 30.050781 L 58.652344 32.101562 L 58.652344 44 L 67.132812 44 L 67.132812 82.449219 L 65.4375 83.101562 C 64.519531 83.449219 62.609375 84.449219 61.199219 85.351562 L 58.652344 86.949219 L 58.652344 99 L 95.542969 99 L 102.464844 94.898438 L 102.464844 83 L 95.398438 83 L 95.398438 71.5 L 100.910156 71.5 L 106.210938 77.800781 L 111.511719 84.148438 L 109.039062 85.648438 L 106.636719 87.148438 L 107.058594 98.75 L 125.433594 98.898438 C 135.539062 98.949219 144.441406 98.898438 145.21875 98.800781 C 145.996094 98.648438 148.046875 97.699219 149.671875 96.75 L 152.640625 94.898438 L 152.640625 83 L 144.371094 83 L 135.46875 72.351562 C 130.519531 66.449219 126.492188 61.5 126.492188 61.351562 C 126.492188 61.148438 128.046875 59.25 129.886719 57.101562 C 131.792969 55 134.972656 51.148438 137.023438 48.601562 C 140.699219 44.101562 140.839844 44 143.453125 44 C 145.363281 44 146.914062 43.550781 149.320312 42.199219 L 152.640625 40.351562 L 152.640625 28 L 114.269531 28 L 110.453125 30.050781 L 106.707031 32.101562 L 106.707031 43.949219 L 110.167969 44.101562 L 113.703125 44.25 L 108.96875 49.851562 L 104.234375 55.5 L 95.398438 55.5 L 95.398438 44.25 L 98.933594 42.25 L 102.464844 40.25 L 102.464844 28 L 83.953125 28 L 65.367188 28.050781 Z M 100.347656 34.25 L 100.347656 39 L 93.28125 39 L 93.28125 56.550781 L 101.476562 56.398438 L 109.746094 56.25 L 116.671875 47.851562 C 120.558594 43.25 123.667969 39.398438 123.667969 39.25 C 123.667969 39.148438 121.96875 39 119.992188 38.898438 L 116.246094 38.75 L 116.246094 29.75 L 133.417969 29.601562 L 150.519531 29.5 L 150.519531 39 L 142.886719 39 L 133.628906 49.898438 C 128.542969 55.898438 124.375 61.101562 124.375 61.351562 C 124.375 61.648438 128.542969 66.898438 133.628906 72.949219 L 142.886719 84 L 150.519531 84 L 150.519531 93.5 L 115.824219 93.5 L 116.035156 88.898438 L 116.246094 84.25 L 119.992188 84.101562 C 121.96875 84 123.667969 83.800781 123.667969 83.601562 C 123.667969 83.398438 120.414062 79.398438 116.386719 74.75 L 109.179688 66.25 L 101.265625 66.101562 L 93.28125 65.949219 L 93.28125 84 L 100.347656 84 L 100.347656 93.5 L 67.839844 93.5 L 67.839844 84 L 76.320312 84 L 76.320312 39 L 67.839844 39 L 67.839844 29.5 L 100.347656 29.5 Z M 100.347656 34.25 "/>
<path style=" stroke:none;fill-rule:nonzero;fill:rgb(0%,0%,0%);fill-opacity:1;" d="M 72.785156 34 L 72.785156 36 L 81.265625 36 L 81.265625 87 L 72.785156 87 L 72.785156 91.101562 L 84.09375 90.949219 L 95.398438 90.75 L 95.398438 87 L 88.332031 87 L 88.332031 63.5 L 112.714844 63.5 L 114.761719 66.148438 C 115.894531 67.550781 120.132812 72.648438 124.160156 77.398438 C 128.1875 82.148438 131.441406 86.25 131.441406 86.5 C 131.441406 86.75 129.109375 87 126.351562 87.101562 L 121.191406 87.25 L 120.980469 88.851562 C 120.769531 90.351562 120.910156 90.449219 123.808594 90.75 C 125.503906 90.898438 131.015625 91 136.035156 90.898438 L 145.21875 90.75 L 145.433594 88.851562 L 145.644531 87 L 142.886719 87 C 139.707031 87 140.414062 87.699219 127.554688 72.25 C 124.089844 68.101562 120.910156 64.398438 120.414062 64 C 118.085938 61.949219 118.367188 61.398438 129.179688 48.648438 L 139.707031 36.25 L 142.605469 36.101562 C 145.574219 35.949219 145.574219 35.949219 145.574219 33.949219 L 145.574219 32 L 120.839844 32 L 120.839844 36 L 126.140625 36 C 129.179688 36 131.441406 36.199219 131.441406 36.5 C 131.441406 36.75 127.554688 41.550781 122.890625 47.101562 C 118.15625 52.648438 113.984375 57.699219 113.5625 58.351562 C 112.855469 59.5 112.714844 59.5 100.558594 59.5 L 88.332031 59.5 L 88.332031 36 L 95.398438 36 L 95.398438 32 L 72.785156 32 Z M 72.785156 34 "/>
<path style=" stroke:none;fill-rule:nonzero;fill:rgb(0%,0%,0%);fill-opacity:1;" d="M 26.851562 109 C 26.851562 109.800781 27.207031 110.5 27.558594 110.5 C 27.984375 110.5 28.265625 112.25 28.265625 114.800781 C 28.265625 117.5 27.984375 118.949219 27.558594 118.75 C 27.136719 118.550781 26.851562 119.101562 26.851562 119.949219 L 26.851562 121.5 L 35.261719 121.5 L 35.476562 119.101562 L 35.6875 116.75 L 37.664062 119.101562 C 39.644531 121.5 39.644531 121.5 43.460938 121.5 C 47.277344 121.5 47.347656 121.5 47.347656 120 C 47.347656 119.148438 47.0625 118.5 46.710938 118.5 C 46.429688 118.5 45.226562 117.601562 44.167969 116.550781 C 41.976562 114.25 42.1875 113.398438 45.296875 111.101562 C 48.335938 108.898438 47.839844 107.800781 43.742188 107.601562 C 40.492188 107.449219 40.351562 107.5 38.441406 109.699219 C 37.3125 110.949219 36.179688 111.949219 35.898438 112 C 35.546875 112 35.332031 111 35.332031 109.75 L 35.332031 107.5 L 26.851562 107.5 Z M 26.851562 109 "/>
<path style=" stroke:none;fill-rule:nonzero;fill:rgb(0%,0%,0%);fill-opacity:1;" d="M 128.613281 109 C 128.613281 109.800781 128.964844 110.5 129.320312 110.5 C 129.742188 110.5 130.027344 112.148438 130.027344 114.449219 C 130.027344 116.648438 129.742188 118.601562 129.320312 118.75 C 128.964844 118.898438 128.613281 119.601562 128.613281 120.300781 L 128.613281 121.5 L 146.28125 121.5 L 146.28125 116 L 143.453125 116 C 140.910156 116 140.625 116.101562 140.625 117.25 C 140.625 117.949219 140.414062 118.5 140.132812 118.550781 C 139.777344 118.550781 139 118.648438 138.367188 118.75 C 137.375 118.898438 137.09375 118.550781 137.09375 117.199219 C 137.09375 116 137.445312 115.5 138.152344 115.5 C 138.71875 115.5 139.214844 115.050781 139.214844 114.5 C 139.214844 113.949219 138.71875 113.5 138.152344 113.5 C 137.445312 113.5 137.09375 113 137.09375 112 C 137.09375 110.75 137.375 110.5 138.789062 110.5 C 140.0625 110.5 140.414062 110.75 140.34375 111.601562 C 140.273438 112.601562 140.699219 112.75 142.886719 112.898438 C 145.148438 113.050781 145.574219 112.898438 145.925781 111.851562 C 146.210938 111.148438 146.28125 109.949219 146.136719 109.199219 L 145.925781 107.75 L 137.304688 107.601562 L 128.613281 107.449219 Z M 128.613281 109 "/>
<path style=" stroke:none;fill-rule:nonzero;fill:rgb(0%,0%,0%);fill-opacity:1;" d="M 156.878906 108.949219 C 156.878906 109.800781 157.234375 110.5 157.585938 110.5 C 158.011719 110.5 158.292969 111 158.292969 111.601562 C 158.292969 112.449219 158.082031 112.550781 157.445312 112.101562 C 156.527344 111.449219 152.78125 111.300781 151.4375 111.898438 C 149.175781 112.949219 148.398438 117.601562 150.167969 120 C 151.367188 121.648438 153.347656 122.25 155.679688 121.699219 C 156.527344 121.5 159.070312 121.351562 161.332031 121.449219 C 165.148438 121.601562 165.359375 121.550781 165.359375 120.398438 C 165.359375 119.699219 165.148438 119 164.9375 118.851562 C 164.652344 118.699219 164.441406 116.101562 164.371094 113.148438 L 164.300781 107.75 L 160.625 107.601562 L 156.878906 107.449219 Z M 158.152344 116.648438 C 158.363281 118.25 158.152344 118.5 156.949219 118.5 C 155.679688 118.5 155.464844 118.199219 155.464844 116.449219 C 155.464844 114.800781 155.679688 114.449219 156.738281 114.601562 C 157.585938 114.699219 158.011719 115.300781 158.152344 116.648438 Z M 158.152344 116.648438 "/>
<path style=" stroke:none;fill-rule:nonzero;fill:rgb(0%,0%,0%);fill-opacity:1;" d="M 49.890625 115.101562 C 50.527344 119.75 51.09375 120.851562 53.425781 121.601562 C 54.90625 122.101562 55.613281 122.050781 57.3125 121.398438 C 58.441406 120.898438 59.359375 120.75 59.359375 121 C 59.359375 121.300781 60.984375 121.5 62.894531 121.5 C 66.144531 121.5 66.425781 121.398438 66.425781 120.300781 C 66.425781 119.601562 66.144531 118.898438 65.71875 118.75 C 65.367188 118.601562 65.011719 116.898438 65.011719 114.949219 L 65.011719 111.5 L 61.480469 111.5 C 58.015625 111.5 57.945312 111.550781 57.945312 113 C 57.945312 113.800781 58.300781 114.5 58.652344 114.5 C 59.078125 114.5 59.359375 115.398438 59.359375 116.5 C 59.359375 118.148438 59.148438 118.5 57.945312 118.5 C 56.675781 118.5 56.535156 118.148438 56.535156 115 L 56.535156 111.5 L 49.394531 111.5 Z M 49.890625 115.101562 "/>
<path style=" stroke:none;fill-rule:nonzero;fill:rgb(0%,0%,0%);fill-opacity:1;" d="M 69.253906 113 C 69.253906 113.800781 69.605469 114.5 70.03125 114.5 C 70.808594 114.5 70.667969 116.101562 69.535156 119.851562 L 69.113281 121.5 L 77.027344 121.5 L 76.886719 118.148438 C 76.671875 115.199219 76.816406 114.75 78.015625 114.601562 C 79.289062 114.398438 79.359375 114.648438 78.863281 117.949219 L 78.441406 121.5 L 82.328125 121.5 C 86.144531 121.5 86.214844 121.5 86.214844 120 C 86.214844 119.148438 85.929688 118.5 85.507812 118.5 C 85.152344 118.5 85.011719 117.851562 85.152344 117 C 85.292969 116.199219 85.082031 114.75 84.730469 113.75 C 83.953125 111.75 81.550781 111 78.296875 111.898438 C 77.167969 112.199219 76.320312 112.199219 76.320312 111.949219 C 76.320312 111.699219 74.765625 111.5 72.785156 111.5 C 69.324219 111.5 69.253906 111.550781 69.253906 113 Z M 69.253906 113 "/>
<path style=" stroke:none;fill-rule:nonzero;fill:rgb(0%,0%,0%);fill-opacity:1;" d="M 90.664062 111.851562 C 90.171875 111.949219 89.746094 112.699219 89.746094 113.5 L 89.746094 114.898438 L 93.988281 114.648438 C 98.933594 114.300781 99.921875 115.199219 95.257812 115.75 C 90.949219 116.25 89.039062 117.25 89.039062 119 C 89.039062 120.601562 91.160156 122 93.632812 122 C 94.410156 122 95.824219 121.648438 96.671875 121.199219 C 97.519531 120.800781 98.226562 120.699219 98.226562 120.949219 C 98.226562 121.25 99.78125 121.5 101.761719 121.5 C 105.222656 121.5 105.292969 121.449219 105.292969 120 C 105.292969 119.148438 105.011719 118.5 104.585938 118.5 C 104.234375 118.5 103.878906 117.351562 103.878906 115.949219 C 103.878906 112.351562 102.394531 111.5 96.175781 111.550781 C 93.632812 111.550781 91.089844 111.699219 90.664062 111.851562 Z M 98.226562 118 C 98.226562 118.25 97.589844 118.5 96.8125 118.5 C 96.035156 118.5 95.398438 118.25 95.398438 118 C 95.398438 117.699219 96.035156 117.5 96.8125 117.5 C 97.589844 117.5 98.226562 117.699219 98.226562 118 Z M 98.226562 118 "/>
<path style=" stroke:none;fill-rule:nonzero;fill:rgb(0%,0%,0%);fill-opacity:1;" d="M 108.121094 112.949219 C 108.121094 113.800781 108.472656 114.601562 108.828125 114.75 C 109.25 114.898438 109.535156 115.800781 109.535156 116.75 C 109.535156 117.699219 109.25 118.601562 108.828125 118.75 C 108.472656 118.898438 108.121094 119.601562 108.121094 120.300781 C 108.121094 121.449219 108.332031 121.5 112.21875 121.5 C 116.035156 121.5 116.246094 121.449219 116.316406 120.25 C 116.386719 119.550781 116.175781 119 115.753906 119 C 115.398438 119 115.1875 118.050781 115.328125 116.898438 C 115.46875 115.25 115.894531 114.699219 116.882812 114.601562 C 118.15625 114.398438 118.226562 114.648438 117.730469 117.949219 L 117.308594 121.5 L 125.152344 121.5 L 124.726562 118.351562 C 123.808594 112.148438 122.042969 110.601562 117.164062 111.898438 C 116.035156 112.199219 115.1875 112.199219 115.1875 111.949219 C 115.1875 111.699219 113.632812 111.5 111.652344 111.5 C 108.191406 111.5 108.121094 111.550781 108.121094 112.949219 Z M 108.121094 112.949219 "/>
<path style=" stroke:none;fill-rule:nonzero;fill:rgb(0%,0%,0%);fill-opacity:1;" d="M 168.609375 114.851562 C 169.316406 119.648438 169.8125 120.648438 171.933594 121.5 C 173.699219 122.199219 174.050781 122.148438 175.960938 121.398438 C 177.160156 120.949219 178.078125 120.75 178.078125 121 C 178.078125 121.300781 179.707031 121.5 181.613281 121.5 C 184.863281 121.5 185.148438 121.398438 185.148438 120.300781 C 185.148438 119.601562 184.863281 118.898438 184.441406 118.75 C 184.085938 118.601562 183.734375 116.898438 183.734375 114.949219 L 183.734375 111.5 L 180.199219 111.5 C 176.738281 111.5 176.667969 111.550781 176.667969 113 C 176.667969 113.800781 177.019531 114.5 177.375 114.5 C 177.796875 114.5 178.078125 115.398438 178.078125 116.5 C 178.078125 118.148438 177.867188 118.5 176.667969 118.5 C 175.394531 118.5 175.253906 118.148438 175.253906 115 L 175.253906 111.5 L 168.046875 111.5 Z M 168.609375 114.851562 "/>
</g>
</svg>
